<svg xmlns="http://www.w3.org/2000/svg" viewBox="0 0 213.657 200.227" width="213.657" height="200.227" role="img" aria-label="VELOUREA icon 02-three"><title>VELOURÉA — 02-three</title><desc>THREE — שלוש משיכות באורך עולה. ההיגיון של אדידס</desc><g transform="translate(89.496 91.018)"><path fill-rule="evenodd" fill="#16151A" d="M-61.172,94.271 L-61.153,94.266 L-61.134,94.26 L-60.418,94.012 L-60.398,94.004 L-60.378,93.997 L-59.691,93.725 L-59.639,93.704 L-58.963,93.414 L-58.927,93.398 L-58.246,93.091 L-58.22,93.079 L-57.538,92.759 L-57.517,92.749 L-56.843,92.423 L-56.143,92.077 L-55.446,91.725 L-54.751,91.369 L-54.058,91.009 L-53.367,90.646 L-52.676,90.28 L-51.986,89.912 L-51.296,89.54 L-50.607,89.167 L-49.917,88.792 L-49.227,88.415 L-48.537,88.036 L-47.847,87.656 L-47.156,87.274 L-46.464,86.891 L-45.772,86.506 L-45.079,86.121 L-44.385,85.734 L-43.691,85.346 L-42.995,84.957 L-42.299,84.567 L-41.602,84.177 L-40.904,83.785 L-40.205,83.393 L-39.505,83 L-38.804,82.606 L-38.102,82.211 L-37.399,81.816 L-36.695,81.42 L-35.99,81.024 L-35.283,80.627 L-34.576,80.229 L-33.868,79.831 L-33.159,79.432 L-32.449,79.033 L-31.738,78.633 L-31.025,78.232 L-30.312,77.831 L-29.598,77.43 L-28.882,77.028 L-28.166,76.626 L-27.448,76.224 L-26.73,75.82 L-26.01,75.417 L-25.29,75.013 L-24.568,74.609 L-23.846,74.204 L-23.122,73.799 L-22.398,73.394 L-21.672,72.988 L-20.946,72.582 L-20.218,72.176 L-19.49,71.769 L-18.761,71.362 L-18.031,70.954 L-17.3,70.547 L-16.568,70.139 L-15.835,69.73 L-15.102,69.322 L-14.367,68.913 L-13.632,68.504 L-12.896,68.094 L-12.159,67.685 L-11.421,67.275 L-10.683,66.864 L-9.944,66.454 L-9.204,66.043 L-8.463,65.632 L-7.721,65.221 L-6.979,64.809 L-6.236,64.398 L-5.493,63.986 L-4.748,63.573 L-4.004,63.161 L-3.258,62.748 L-2.512,62.335 L-1.765,61.922 L-1.018,61.509 L-0.27,61.095 L0.479,60.682 L1.228,60.268 L1.977,59.853 L2.728,59.439 L3.478,59.025 L4.229,58.61 L4.981,58.195 L5.733,57.78 L6.485,57.364 L7.238,56.949 L7.991,56.533 L8.745,56.117 L9.499,55.701 L10.254,55.285 L11.008,54.869 L11.763,54.452 L12.519,54.035 L13.274,53.619 L14.03,53.201 L14.786,52.784 L15.543,52.367 L16.299,51.949 L17.056,51.532 L17.813,51.114 L18.57,50.696 L19.328,50.278 L20.085,49.859 L20.843,49.441 L21.601,49.023 L22.358,48.604 L23.116,48.185 L23.874,47.766 L24.632,47.347 L25.39,46.928 L26.148,46.508 L26.906,46.089 L27.664,45.669 L28.422,45.249 L29.18,44.829 L29.938,44.409 L30.695,43.989 L31.453,43.569 L32.21,43.149 L32.967,42.728 L33.724,42.307 L34.481,41.887 L35.238,41.466 L35.994,41.045 L36.75,40.624 L37.506,40.203 L38.262,39.781 L39.017,39.36 L39.772,38.938 L40.527,38.517 L41.281,38.095 L42.035,37.673 L42.788,37.251 L43.541,36.829 L44.294,36.407 L45.046,35.985 L45.798,35.563 L46.549,35.14 L47.3,34.718 L48.051,34.295 L48.8,33.872 L49.549,33.449 L50.298,33.026 L51.046,32.603 L51.793,32.18 L52.54,31.757 L53.286,31.334 L54.032,30.91 L54.776,30.487 L55.52,30.063 L56.264,29.639 L57.006,29.216 L57.748,28.792 L58.489,28.368 L59.229,27.944 L59.968,27.519 L60.707,27.095 L61.444,26.671 L62.181,26.246 L62.917,25.821 L63.652,25.397 L64.386,24.972 L65.118,24.547 L65.85,24.121 L66.581,23.696 L67.311,23.271 L68.04,22.845 L68.768,22.42 L69.494,21.994 L70.22,21.568 L70.944,21.142 L71.668,20.716 L72.39,20.289 L73.11,19.863 L73.83,19.436 L74.548,19.009 L75.265,18.582 L75.981,18.154 L76.695,17.727 L77.408,17.299 L78.12,16.871 L78.83,16.443 L79.539,16.015 L80.246,15.586 L80.952,15.157 L81.656,14.728 L82.359,14.298 L83.06,13.868 L83.76,13.438 L84.458,13.007 L85.154,12.576 L85.849,12.145 L86.542,11.713 L87.233,11.281 L87.922,10.848 L88.61,10.415 L89.295,9.981 L89.979,9.546 L90.661,9.111 L91.34,8.676 L92.018,8.239 L92.693,7.802 L93.367,7.364 L94.038,6.925 L94.707,6.485 L95.373,6.044 L96.037,5.602 L96.699,5.158 L97.358,4.714 L98.015,4.268 L98.668,3.82 L99.319,3.37 L99.967,2.919 L100.611,2.465 L101.252,2.009 L101.89,1.55 L102.524,1.088 L103.153,0.622 L103.778,0.153 L104.398,-0.321 L105.022,-0.808 L105.04,-0.822 L105.631,-1.294 L105.652,-1.312 L106.233,-1.789 L106.259,-1.811 L106.826,-2.294 L106.859,-2.323 L107.407,-2.811 L107.452,-2.852 L107.988,-3.36 L108.004,-3.375 L108.02,-3.391 L108.545,-3.936 L108.559,-3.951 L108.572,-3.967 L109.067,-4.571 L109.081,-4.588 L109.088,-4.608 L109.419,-5.541 L109.426,-5.562 L109.417,-5.582 L103.689,-16.755 L103.679,-16.775 L103.658,-16.781 L102.708,-17.058 L102.688,-17.063 L102.666,-17.062 L101.889,-17.015 L101.869,-17.014 L101.848,-17.011 L101.102,-16.904 L101.079,-16.901 L101.057,-16.897 L100.335,-16.76 L100.276,-16.748 L99.562,-16.59 L99.519,-16.581 L98.798,-16.405 L98.765,-16.396 L98.04,-16.207 L98.013,-16.2 L97.286,-15.998 L97.264,-15.992 L96.543,-15.784 L95.792,-15.56 L95.044,-15.329 L94.296,-15.092 L93.549,-14.85 L92.803,-14.604 L92.057,-14.353 L91.311,-14.098 L90.565,-13.84 L89.819,-13.578 L89.072,-13.312 L88.325,-13.044 L87.578,-12.772 L86.83,-12.497 L86.082,-12.22 L85.333,-11.94 L84.583,-11.658 L83.833,-11.373 L83.082,-11.085 L82.33,-10.795 L81.578,-10.503 L80.825,-10.209 L80.071,-9.913 L79.317,-9.614 L78.561,-9.314 L77.805,-9.011 L77.048,-8.706 L76.291,-8.4 L75.532,-8.091 L74.773,-7.781 L74.013,-7.469 L73.252,-7.155 L72.491,-6.839 L71.729,-6.521 L70.966,-6.202 L70.202,-5.881 L69.438,-5.558 L68.673,-5.233 L67.907,-4.907 L67.14,-4.579 L66.373,-4.25 L65.605,-3.919 L64.837,-3.586 L64.068,-3.251 L63.298,-2.915 L62.527,-2.578 L61.756,-2.239 L60.985,-1.898 L60.213,-1.556 L59.44,-1.212 L58.666,-0.867 L57.892,-0.52 L57.118,-0.172 L56.343,0.178 L55.568,0.53 L54.792,0.882 L54.015,1.237 L53.238,1.592 L52.461,1.95 L51.683,2.308 L50.905,2.668 L50.127,3.03 L49.348,3.393 L48.569,3.757 L47.789,4.123 L47.009,4.49 L46.229,4.859 L45.448,5.229 L44.668,5.6 L43.887,5.973 L43.105,6.348 L42.324,6.723 L41.542,7.1 L40.76,7.479 L39.978,7.858 L39.196,8.239 L38.413,8.622 L37.631,9.006 L36.848,9.391 L36.066,9.778 L35.283,10.166 L34.5,10.555 L33.717,10.945 L32.934,11.337 L32.152,11.731 L31.369,12.125 L30.586,12.521 L29.803,12.918 L29.021,13.317 L28.238,13.717 L27.456,14.118 L26.673,14.521 L25.891,14.925 L25.109,15.33 L24.328,15.736 L23.546,16.144 L22.765,16.553 L21.984,16.963 L21.203,17.375 L20.422,17.788 L19.642,18.202 L18.862,18.618 L18.082,19.034 L17.303,19.452 L16.524,19.872 L15.746,20.292 L14.968,20.714 L14.19,21.137 L13.413,21.562 L12.636,21.988 L11.86,22.414 L11.084,22.843 L10.309,23.272 L9.535,23.703 L8.76,24.135 L7.987,24.568 L7.214,25.003 L6.442,25.438 L5.67,25.875 L4.899,26.313 L4.129,26.753 L3.36,27.194 L2.591,27.635 L1.823,28.079 L1.056,28.523 L0.289,28.969 L-0.477,29.415 L-1.242,29.864 L-2.006,30.313 L-2.769,30.763 L-3.531,31.215 L-4.292,31.668 L-5.053,32.122 L-5.812,32.578 L-6.571,33.034 L-7.328,33.492 L-8.085,33.951 L-8.84,34.411 L-9.595,34.873 L-10.348,35.336 L-11.101,35.799 L-11.852,36.264 L-12.602,36.731 L-13.351,37.198 L-14.099,37.667 L-14.845,38.137 L-15.59,38.608 L-16.334,39.08 L-17.077,39.554 L-17.819,40.028 L-18.559,40.504 L-19.298,40.981 L-20.036,41.46 L-20.772,41.939 L-21.507,42.42 L-22.24,42.902 L-22.972,43.385 L-23.702,43.869 L-24.431,44.354 L-25.159,44.841 L-25.885,45.329 L-26.609,45.818 L-27.332,46.308 L-28.053,46.799 L-28.773,47.292 L-29.491,47.786 L-30.207,48.281 L-30.922,48.777 L-31.635,49.274 L-32.346,49.773 L-33.055,50.273 L-33.763,50.774 L-34.469,51.276 L-35.173,51.78 L-35.875,52.284 L-36.575,52.79 L-37.273,53.298 L-37.97,53.806 L-38.664,54.316 L-39.356,54.826 L-40.046,55.339 L-40.735,55.852 L-41.421,56.367 L-42.105,56.882 L-42.786,57.4 L-43.466,57.918 L-44.143,58.438 L-44.818,58.959 L-45.491,59.481 L-46.162,60.005 L-46.83,60.53 L-47.496,61.057 L-48.159,61.584 L-48.82,62.113 L-49.478,62.644 L-50.134,63.176 L-50.787,63.709 L-51.437,64.244 L-52.085,64.781 L-52.73,65.319 L-53.372,65.858 L-54.012,66.399 L-54.648,66.942 L-55.281,67.486 L-55.912,68.032 L-56.539,68.58 L-57.163,69.13 L-57.784,69.681 L-58.402,70.234 L-59.016,70.79 L-59.626,71.347 L-60.233,71.907 L-60.836,72.469 L-61.435,73.033 L-62.03,73.6 L-62.621,74.169 L-63.207,74.741 L-63.789,75.317 L-64.365,75.895 L-64.937,76.478 L-65.502,77.064 L-66.069,77.662 L-66.082,77.676 L-66.622,78.258 L-66.637,78.274 L-67.168,78.859 L-67.185,78.879 L-67.705,79.468 L-67.725,79.491 L-68.233,80.084 L-68.257,80.113 L-68.749,80.71 L-68.778,80.746 L-69.249,81.346 L-69.287,81.396 L-69.742,82.014 L-69.756,82.033 L-69.769,82.052 L-70.206,82.707 L-70.217,82.724 L-70.227,82.741 L-70.622,83.45 L-70.632,83.469 L-70.636,83.49 L-70.798,84.486 L-70.801,84.507 L-70.788,84.524 L-62.999,94.373 L-62.985,94.39 L-62.964,94.392 L-61.971,94.472 L-61.949,94.474 L-61.927,94.468 Z M-63.361,44.852 L-63.338,44.848 L-63.316,44.843 L-62.73,44.689 L-62.705,44.682 L-62.681,44.674 L-62.11,44.492 L-62.094,44.487 L-62.078,44.482 L-61.519,44.282 L-61.473,44.265 L-60.925,44.055 L-60.89,44.041 L-60.339,43.817 L-60.312,43.806 L-59.76,43.573 L-59.738,43.563 L-59.194,43.325 L-58.62,43.068 L-58.051,42.807 L-57.484,42.542 L-56.918,42.273 L-56.354,42.002 L-55.791,41.727 L-55.229,41.451 L-54.667,41.172 L-54.106,40.891 L-53.545,40.608 L-52.984,40.323 L-52.423,40.037 L-51.862,39.749 L-51.301,39.459 L-50.739,39.169 L-50.178,38.877 L-49.616,38.584 L-49.053,38.289 L-48.49,37.994 L-47.927,37.698 L-47.363,37.4 L-46.799,37.102 L-46.234,36.803 L-45.668,36.503 L-45.102,36.202 L-44.536,35.9 L-43.968,35.598 L-43.4,35.295 L-42.831,34.991 L-42.262,34.687 L-41.692,34.381 L-41.121,34.076 L-40.549,33.769 L-39.977,33.462 L-39.404,33.154 L-38.831,32.846 L-38.256,32.537 L-37.681,32.228 L-37.106,31.918 L-36.529,31.608 L-35.952,31.297 L-35.374,30.985 L-34.795,30.673 L-34.216,30.361 L-33.636,30.048 L-33.056,29.735 L-32.474,29.421 L-31.892,29.107 L-31.31,28.792 L-30.726,28.477 L-30.142,28.161 L-29.557,27.845 L-28.972,27.529 L-28.386,27.212 L-27.8,26.895 L-27.212,26.577 L-26.625,26.26 L-26.036,25.941 L-25.447,25.622 L-24.857,25.303 L-24.267,24.984 L-23.677,24.664 L-23.085,24.344 L-22.493,24.023 L-21.901,23.702 L-21.308,23.381 L-20.714,23.059 L-20.12,22.738 L-19.526,22.415 L-18.931,22.093 L-18.336,21.77 L-17.74,21.446 L-17.143,21.123 L-16.546,20.799 L-15.949,20.475 L-15.352,20.15 L-14.754,19.825 L-14.155,19.5 L-13.556,19.174 L-12.957,18.849 L-12.357,18.523 L-11.757,18.196 L-11.157,17.869 L-10.556,17.542 L-9.956,17.215 L-9.354,16.888 L-8.753,16.56 L-8.151,16.232 L-7.549,15.903 L-6.947,15.574 L-6.344,15.245 L-5.741,14.916 L-5.138,14.587 L-4.535,14.257 L-3.932,13.927 L-3.328,13.596 L-2.724,13.266 L-2.12,12.935 L-1.516,12.603 L-0.912,12.272 L-0.308,11.94 L0.297,11.608 L0.901,11.276 L1.506,10.944 L2.11,10.611 L2.715,10.278 L3.319,9.945 L3.924,9.611 L4.529,9.277 L5.133,8.943 L5.738,8.609 L6.343,8.275 L6.947,7.94 L7.552,7.605 L8.156,7.27 L8.76,6.934 L9.365,6.598 L9.969,6.262 L10.573,5.926 L11.177,5.59 L11.78,5.253 L12.384,4.916 L12.987,4.579 L13.59,4.242 L14.193,3.904 L14.796,3.566 L15.398,3.228 L16,2.89 L16.602,2.551 L17.204,2.213 L17.805,1.874 L18.406,1.534 L19.006,1.195 L19.607,0.855 L20.207,0.515 L20.806,0.175 L21.405,-0.165 L22.004,-0.505 L22.602,-0.846 L23.2,-1.187 L23.798,-1.528 L24.395,-1.87 L24.991,-2.212 L25.587,-2.553 L26.182,-2.896 L26.777,-3.238 L27.372,-3.581 L27.966,-3.923 L28.559,-4.266 L29.152,-4.61 L29.744,-4.953 L30.335,-5.297 L30.926,-5.641 L31.516,-5.985 L32.106,-6.329 L32.694,-6.674 L33.282,-7.019 L33.87,-7.364 L34.456,-7.709 L35.042,-8.055 L35.628,-8.4 L36.212,-8.746 L36.795,-9.093 L37.378,-9.439 L37.96,-9.786 L38.541,-10.133 L39.121,-10.48 L39.701,-10.828 L40.279,-11.176 L40.856,-11.524 L41.433,-11.872 L42.009,-12.221 L42.583,-12.57 L43.157,-12.919 L43.729,-13.269 L44.301,-13.618 L44.871,-13.969 L45.441,-14.319 L46.009,-14.67 L46.576,-15.021 L47.142,-15.373 L47.707,-15.724 L48.271,-16.077 L48.834,-16.429 L49.395,-16.782 L49.955,-17.135 L50.514,-17.489 L51.071,-17.844 L51.628,-18.198 L52.182,-18.553 L52.736,-18.909 L53.288,-19.265 L53.839,-19.622 L54.388,-19.979 L54.936,-20.337 L55.482,-20.695 L56.026,-21.054 L56.57,-21.414 L57.111,-21.774 L57.651,-22.135 L58.189,-22.497 L58.725,-22.86 L59.26,-23.223 L59.793,-23.588 L60.324,-23.953 L60.853,-24.32 L61.38,-24.687 L61.905,-25.056 L62.427,-25.426 L62.948,-25.798 L63.466,-26.171 L63.982,-26.546 L64.496,-26.922 L65.007,-27.3 L65.515,-27.681 L66.02,-28.064 L66.523,-28.449 L67.022,-28.837 L67.517,-29.228 L68.009,-29.623 L68.505,-30.029 L68.52,-30.042 L68.988,-30.433 L69.006,-30.449 L69.467,-30.843 L69.488,-30.862 L69.94,-31.26 L69.965,-31.283 L70.406,-31.685 L70.436,-31.714 L70.863,-32.12 L70.901,-32.157 L71.321,-32.579 L71.334,-32.592 L71.346,-32.605 L71.755,-33.047 L71.773,-33.067 L71.79,-33.087 L72.179,-33.555 L72.194,-33.573 L72.208,-33.593 L72.57,-34.124 L72.582,-34.142 L72.587,-34.163 L72.789,-35.026 L72.793,-35.047 L72.784,-35.067 L67.056,-46.24 L67.046,-46.26 L67.026,-46.268 L66.208,-46.609 L66.188,-46.617 L66.167,-46.618 L65.527,-46.636 L65.503,-46.636 L65.48,-46.635 L64.875,-46.594 L64.849,-46.592 L64.822,-46.589 L64.227,-46.517 L64.209,-46.515 L64.192,-46.512 L63.606,-46.419 L63.553,-46.41 L62.977,-46.303 L62.936,-46.295 L62.354,-46.175 L62.321,-46.168 L61.735,-46.036 L61.708,-46.03 L61.12,-45.889 L61.097,-45.884 L60.508,-45.735 L60.488,-45.73 L59.905,-45.577 L59.295,-45.41 L58.686,-45.239 L58.078,-45.063 L57.47,-44.883 L56.863,-44.699 L56.256,-44.512 L55.65,-44.321 L55.043,-44.127 L54.436,-43.93 L53.83,-43.73 L53.223,-43.527 L52.615,-43.322 L52.008,-43.114 L51.4,-42.903 L50.792,-42.691 L50.183,-42.476 L49.574,-42.259 L48.965,-42.04 L48.355,-41.818 L47.745,-41.595 L47.134,-41.37 L46.523,-41.143 L45.911,-40.914 L45.299,-40.683 L44.686,-40.45 L44.073,-40.216 L43.459,-39.98 L42.844,-39.742 L42.23,-39.502 L41.614,-39.261 L40.998,-39.018 L40.382,-38.774 L39.765,-38.527 L39.148,-38.28 L38.53,-38.031 L37.912,-37.78 L37.293,-37.528 L36.673,-37.274 L36.054,-37.018 L35.433,-36.762 L34.813,-36.504 L34.192,-36.244 L33.57,-35.983 L32.948,-35.72 L32.326,-35.456 L31.703,-35.191 L31.08,-34.924 L30.456,-34.656 L29.832,-34.386 L29.208,-34.116 L28.583,-33.843 L27.958,-33.57 L27.333,-33.295 L26.707,-33.018 L26.081,-32.741 L25.455,-32.462 L24.828,-32.181 L24.201,-31.9 L23.574,-31.617 L22.947,-31.333 L22.319,-31.047 L21.692,-30.76 L21.064,-30.472 L20.435,-30.183 L19.807,-29.892 L19.178,-29.6 L18.55,-29.307 L17.921,-29.013 L17.292,-28.717 L16.663,-28.42 L16.034,-28.122 L15.404,-27.822 L14.775,-27.522 L14.146,-27.22 L13.516,-26.917 L12.887,-26.612 L12.257,-26.307 L11.628,-26 L10.998,-25.692 L10.369,-25.382 L9.739,-25.072 L9.11,-24.76 L8.481,-24.447 L7.851,-24.133 L7.222,-23.818 L6.593,-23.501 L5.964,-23.183 L5.336,-22.865 L4.707,-22.544 L4.079,-22.223 L3.45,-21.901 L2.822,-21.577 L2.195,-21.252 L1.567,-20.926 L0.94,-20.599 L0.313,-20.27 L-0.314,-19.941 L-0.941,-19.61 L-1.567,-19.278 L-2.193,-18.945 L-2.819,-18.611 L-3.444,-18.276 L-4.069,-17.939 L-4.693,-17.601 L-5.317,-17.262 L-5.941,-16.922 L-6.564,-16.581 L-7.187,-16.239 L-7.809,-15.896 L-8.431,-15.551 L-9.052,-15.205 L-9.673,-14.858 L-10.294,-14.51 L-10.913,-14.161 L-11.533,-13.811 L-12.151,-13.459 L-12.769,-13.107 L-13.387,-12.753 L-14.004,-12.398 L-14.62,-12.042 L-15.235,-11.685 L-15.85,-11.327 L-16.465,-10.968 L-17.078,-10.607 L-17.691,-10.246 L-18.303,-9.883 L-18.914,-9.519 L-19.525,-9.154 L-20.135,-8.788 L-20.744,-8.421 L-21.352,-8.053 L-21.959,-7.683 L-22.566,-7.313 L-23.171,-6.941 L-23.776,-6.569 L-24.38,-6.195 L-24.983,-5.82 L-25.585,-5.444 L-26.186,-5.067 L-26.786,-4.688 L-27.385,-4.309 L-27.983,-3.929 L-28.581,-3.547 L-29.177,-3.164 L-29.772,-2.781 L-30.365,-2.396 L-30.958,-2.01 L-31.55,-1.623 L-32.141,-1.235 L-32.73,-0.846 L-33.318,-0.455 L-33.905,-0.064 L-34.491,0.329 L-35.076,0.722 L-35.66,1.117 L-36.242,1.513 L-36.823,1.91 L-37.402,2.308 L-37.981,2.707 L-38.557,3.107 L-39.133,3.509 L-39.707,3.911 L-40.28,4.315 L-40.852,4.719 L-41.422,5.125 L-41.99,5.532 L-42.557,5.94 L-43.123,6.349 L-43.687,6.76 L-44.249,7.171 L-44.81,7.583 L-45.369,7.997 L-45.927,8.412 L-46.483,8.828 L-47.037,9.245 L-47.59,9.663 L-48.141,10.083 L-48.69,10.503 L-49.238,10.925 L-49.784,11.348 L-50.327,11.772 L-50.87,12.197 L-51.41,12.623 L-51.948,13.051 L-52.484,13.48 L-53.019,13.91 L-53.551,14.342 L-54.082,14.774 L-54.61,15.208 L-55.136,15.643 L-55.66,16.08 L-56.182,16.518 L-56.702,16.957 L-57.219,17.397 L-57.735,17.839 L-58.247,18.283 L-58.758,18.728 L-59.266,19.174 L-59.772,19.622 L-60.275,20.071 L-60.775,20.522 L-61.273,20.974 L-61.768,21.428 L-62.26,21.884 L-62.75,22.342 L-63.236,22.801 L-63.72,23.263 L-64.2,23.726 L-64.677,24.192 L-65.151,24.659 L-65.621,25.13 L-66.087,25.602 L-66.55,26.077 L-67.009,26.555 L-67.463,27.036 L-67.913,27.52 L-68.358,28.007 L-68.805,28.506 L-68.819,28.522 L-69.239,29.002 L-69.255,29.02 L-69.667,29.503 L-69.685,29.524 L-70.088,30.01 L-70.108,30.034 L-70.502,30.523 L-70.525,30.552 L-70.906,31.044 L-70.933,31.079 L-71.299,31.573 L-71.331,31.618 L-71.687,32.128 L-71.698,32.143 L-71.708,32.159 L-72.048,32.687 L-72.063,32.71 L-72.076,32.733 L-72.391,33.285 L-72.402,33.306 L-72.412,33.327 L-72.687,33.936 L-72.696,33.956 L-72.698,33.978 L-72.744,34.877 L-72.745,34.899 L-72.732,34.916 L-64.943,44.764 L-64.929,44.781 L-64.907,44.785 L-64.035,44.957 L-64.013,44.961 L-63.991,44.957 Z M-66.098,-4.559 L-66.077,-4.553 L-66.056,-4.553 L-65.545,-4.569 L-65.523,-4.57 L-65.502,-4.572 L-65.033,-4.638 L-65.012,-4.641 L-64.992,-4.645 L-64.544,-4.736 L-64.523,-4.74 L-64.502,-4.745 L-64.078,-4.851 L-64.018,-4.867 L-63.605,-4.983 L-63.559,-4.996 L-63.142,-5.125 L-63.105,-5.136 L-62.686,-5.274 L-62.656,-5.285 L-62.235,-5.431 L-62.21,-5.439 L-61.788,-5.592 L-61.767,-5.6 L-61.353,-5.755 L-60.91,-5.926 L-60.471,-6.1 L-60.033,-6.277 L-59.597,-6.457 L-59.162,-6.639 L-58.728,-6.824 L-58.295,-7.011 L-57.863,-7.199 L-57.431,-7.39 L-57,-7.582 L-56.569,-7.776 L-56.138,-7.972 L-55.708,-8.169 L-55.277,-8.367 L-54.847,-8.566 L-54.417,-8.767 L-53.986,-8.969 L-53.556,-9.172 L-53.125,-9.376 L-52.695,-9.581 L-52.264,-9.787 L-51.833,-9.994 L-51.401,-10.202 L-50.97,-10.41 L-50.538,-10.62 L-50.106,-10.83 L-49.673,-11.041 L-49.241,-11.253 L-48.808,-11.466 L-48.374,-11.679 L-47.94,-11.893 L-47.506,-12.108 L-47.072,-12.324 L-46.637,-12.54 L-46.202,-12.756 L-45.766,-12.974 L-45.33,-13.192 L-44.893,-13.41 L-44.457,-13.63 L-44.019,-13.849 L-43.582,-14.07 L-43.144,-14.291 L-42.705,-14.512 L-42.267,-14.734 L-41.827,-14.957 L-41.388,-15.18 L-40.948,-15.404 L-40.508,-15.628 L-40.067,-15.852 L-39.626,-16.078 L-39.184,-16.303 L-38.742,-16.529 L-38.3,-16.756 L-37.858,-16.983 L-37.415,-17.211 L-36.971,-17.439 L-36.528,-17.668 L-36.084,-17.897 L-35.64,-18.126 L-35.195,-18.356 L-34.75,-18.587 L-34.305,-18.817 L-33.859,-19.049 L-33.413,-19.28 L-32.967,-19.513 L-32.521,-19.745 L-32.074,-19.978 L-31.627,-20.212 L-31.179,-20.446 L-30.732,-20.68 L-30.284,-20.915 L-29.836,-21.15 L-29.387,-21.386 L-28.939,-21.622 L-28.49,-21.858 L-28.041,-22.095 L-27.592,-22.332 L-27.142,-22.57 L-26.693,-22.808 L-26.243,-23.046 L-25.793,-23.285 L-25.343,-23.525 L-24.892,-23.764 L-24.442,-24.004 L-23.991,-24.245 L-23.54,-24.485 L-23.09,-24.727 L-22.638,-24.968 L-22.187,-25.21 L-21.736,-25.453 L-21.285,-25.695 L-20.833,-25.939 L-20.382,-26.182 L-19.93,-26.426 L-19.479,-26.67 L-19.027,-26.915 L-18.576,-27.16 L-18.124,-27.405 L-17.672,-27.651 L-17.22,-27.897 L-16.769,-28.144 L-16.317,-28.39 L-15.865,-28.638 L-15.414,-28.885 L-14.962,-29.133 L-14.511,-29.382 L-14.059,-29.63 L-13.608,-29.879 L-13.156,-30.129 L-12.705,-30.378 L-12.254,-30.629 L-11.803,-30.879 L-11.352,-31.13 L-10.901,-31.381 L-10.451,-31.633 L-10,-31.884 L-9.55,-32.137 L-9.1,-32.389 L-8.65,-32.642 L-8.2,-32.896 L-7.75,-33.149 L-7.301,-33.403 L-6.852,-33.658 L-6.403,-33.912 L-5.954,-34.167 L-5.506,-34.423 L-5.058,-34.678 L-4.61,-34.934 L-4.162,-35.191 L-3.715,-35.448 L-3.268,-35.705 L-2.822,-35.962 L-2.375,-36.22 L-1.929,-36.478 L-1.484,-36.737 L-1.039,-36.996 L-0.594,-37.255 L-0.149,-37.514 L0.295,-37.774 L0.738,-38.035 L1.182,-38.295 L1.624,-38.556 L2.067,-38.817 L2.509,-39.079 L2.95,-39.341 L3.391,-39.603 L3.831,-39.866 L4.271,-40.129 L4.711,-40.393 L5.15,-40.656 L5.588,-40.92 L6.026,-41.185 L6.463,-41.45 L6.9,-41.715 L7.336,-41.981 L7.771,-42.246 L8.206,-42.513 L8.64,-42.779 L9.074,-43.046 L9.507,-43.314 L9.939,-43.582 L10.371,-43.85 L10.801,-44.118 L11.232,-44.387 L11.661,-44.657 L12.09,-44.926 L12.518,-45.197 L12.945,-45.467 L13.371,-45.738 L13.797,-46.009 L14.222,-46.281 L14.646,-46.553 L15.069,-46.826 L15.491,-47.099 L15.913,-47.373 L16.333,-47.647 L16.753,-47.921 L17.172,-48.196 L17.589,-48.472 L18.006,-48.748 L18.422,-49.024 L18.837,-49.301 L19.251,-49.579 L19.663,-49.857 L20.075,-50.135 L20.486,-50.414 L20.896,-50.694 L21.304,-50.974 L21.711,-51.255 L22.118,-51.537 L22.523,-51.819 L22.926,-52.102 L23.329,-52.386 L23.73,-52.671 L24.13,-52.956 L24.529,-53.242 L24.926,-53.529 L25.322,-53.816 L25.717,-54.105 L26.11,-54.395 L26.502,-54.685 L26.892,-54.977 L27.28,-55.27 L27.667,-55.564 L28.052,-55.859 L28.435,-56.156 L28.817,-56.454 L29.196,-56.754 L29.574,-57.055 L29.95,-57.358 L30.323,-57.663 L30.694,-57.97 L31.063,-58.279 L31.429,-58.591 L31.793,-58.905 L32.154,-59.222 L32.518,-59.55 L32.533,-59.563 L32.872,-59.874 L32.89,-59.89 L33.223,-60.203 L33.243,-60.222 L33.57,-60.538 L33.592,-60.559 L33.912,-60.878 L33.937,-60.903 L34.248,-61.224 L34.278,-61.255 L34.578,-61.579 L34.613,-61.618 L34.91,-61.955 L34.921,-61.968 L34.932,-61.98 L35.224,-62.335 L35.238,-62.352 L35.251,-62.37 L35.53,-62.74 L35.542,-62.758 L35.554,-62.776 L35.817,-63.177 L35.829,-63.196 L35.839,-63.215 L36.073,-63.676 L36.082,-63.696 L36.085,-63.717 L36.159,-64.511 L36.161,-64.533 L36.151,-64.552 L30.423,-75.726 L30.413,-75.745 L30.394,-75.756 L29.708,-76.16 L29.689,-76.171 L29.667,-76.175 L29.16,-76.255 L29.138,-76.258 L29.116,-76.26 L28.64,-76.283 L28.618,-76.283 L28.596,-76.283 L28.136,-76.275 L28.113,-76.275 L28.091,-76.274 L27.635,-76.246 L27.619,-76.245 L27.602,-76.243 L27.157,-76.201 L27.105,-76.195 L26.669,-76.142 L26.627,-76.137 L26.187,-76.074 L26.151,-76.068 L25.708,-75.997 L25.678,-75.992 L25.232,-75.913 L25.206,-75.908 L24.758,-75.822 L24.735,-75.818 L24.286,-75.727 L24.265,-75.722 L23.824,-75.628 L23.353,-75.522 L22.884,-75.413 L22.416,-75.3 L21.948,-75.184 L21.481,-75.064 L21.014,-74.941 L20.548,-74.816 L20.082,-74.687 L19.616,-74.556 L19.15,-74.423 L18.684,-74.287 L18.217,-74.149 L17.751,-74.009 L17.285,-73.867 L16.819,-73.722 L16.352,-73.576 L15.886,-73.428 L15.419,-73.278 L14.952,-73.126 L14.485,-72.972 L14.017,-72.817 L13.55,-72.66 L13.082,-72.501 L12.613,-72.34 L12.145,-72.178 L11.676,-72.015 L11.207,-71.85 L10.738,-71.683 L10.268,-71.515 L9.799,-71.345 L9.328,-71.174 L8.858,-71.002 L8.387,-70.828 L7.917,-70.653 L7.445,-70.476 L6.974,-70.298 L6.502,-70.119 L6.03,-69.938 L5.558,-69.756 L5.086,-69.572 L4.613,-69.388 L4.14,-69.202 L3.667,-69.015 L3.193,-68.826 L2.72,-68.636 L2.246,-68.445 L1.772,-68.253 L1.298,-68.06 L0.823,-67.865 L0.349,-67.669 L-0.126,-67.472 L-0.601,-67.273 L-1.076,-67.074 L-1.551,-66.873 L-2.027,-66.671 L-2.502,-66.468 L-2.978,-66.264 L-3.454,-66.058 L-3.93,-65.852 L-4.406,-65.644 L-4.882,-65.435 L-5.358,-65.225 L-5.834,-65.014 L-6.31,-64.801 L-6.787,-64.588 L-7.263,-64.373 L-7.74,-64.157 L-8.216,-63.94 L-8.692,-63.722 L-9.169,-63.503 L-9.645,-63.283 L-10.122,-63.062 L-10.598,-62.839 L-11.075,-62.615 L-11.551,-62.391 L-12.027,-62.165 L-12.503,-61.938 L-12.979,-61.71 L-13.455,-61.481 L-13.931,-61.251 L-14.407,-61.02 L-14.883,-60.787 L-15.358,-60.554 L-15.834,-60.319 L-16.309,-60.084 L-16.784,-59.847 L-17.259,-59.61 L-17.734,-59.371 L-18.208,-59.131 L-18.683,-58.89 L-19.157,-58.648 L-19.631,-58.405 L-20.104,-58.161 L-20.577,-57.916 L-21.051,-57.67 L-21.523,-57.422 L-21.996,-57.174 L-22.468,-56.925 L-22.94,-56.674 L-23.412,-56.423 L-23.883,-56.171 L-24.354,-55.917 L-24.824,-55.662 L-25.294,-55.407 L-25.764,-55.15 L-26.233,-54.893 L-26.702,-54.634 L-27.171,-54.374 L-27.639,-54.113 L-28.107,-53.852 L-28.574,-53.589 L-29.041,-53.325 L-29.507,-53.06 L-29.973,-52.794 L-30.438,-52.527 L-30.903,-52.259 L-31.367,-51.99 L-31.831,-51.72 L-32.294,-51.449 L-32.756,-51.177 L-33.218,-50.904 L-33.68,-50.63 L-34.14,-50.355 L-34.6,-50.079 L-35.06,-49.802 L-35.519,-49.524 L-35.977,-49.245 L-36.435,-48.964 L-36.891,-48.683 L-37.348,-48.401 L-37.803,-48.118 L-38.258,-47.834 L-38.712,-47.549 L-39.165,-47.262 L-39.618,-46.975 L-40.069,-46.687 L-40.52,-46.398 L-40.97,-46.108 L-41.42,-45.817 L-41.868,-45.524 L-42.316,-45.231 L-42.763,-44.937 L-43.209,-44.642 L-43.654,-44.346 L-44.098,-44.048 L-44.541,-43.75 L-44.983,-43.451 L-45.424,-43.151 L-45.865,-42.85 L-46.304,-42.547 L-46.743,-42.244 L-47.18,-41.94 L-47.616,-41.635 L-48.052,-41.328 L-48.486,-41.021 L-48.919,-40.713 L-49.352,-40.404 L-49.783,-40.093 L-50.213,-39.782 L-50.641,-39.47 L-51.069,-39.157 L-51.496,-38.842 L-51.921,-38.527 L-52.345,-38.21 L-52.768,-37.893 L-53.19,-37.575 L-53.61,-37.255 L-54.029,-36.935 L-54.447,-36.613 L-54.863,-36.291 L-55.279,-35.967 L-55.693,-35.642 L-56.105,-35.316 L-56.516,-34.99 L-56.926,-34.662 L-57.334,-34.333 L-57.741,-34.003 L-58.146,-33.672 L-58.55,-33.339 L-58.953,-33.006 L-59.353,-32.671 L-59.752,-32.336 L-60.15,-31.999 L-60.546,-31.661 L-60.94,-31.322 L-61.333,-30.982 L-61.724,-30.641 L-62.113,-30.298 L-62.501,-29.954 L-62.886,-29.609 L-63.27,-29.263 L-63.652,-28.915 L-64.032,-28.566 L-64.41,-28.216 L-64.786,-27.864 L-65.16,-27.511 L-65.531,-27.157 L-65.901,-26.801 L-66.269,-26.443 L-66.634,-26.084 L-66.997,-25.724 L-67.357,-25.362 L-67.715,-24.998 L-68.071,-24.632 L-68.424,-24.265 L-68.774,-23.895 L-69.121,-23.524 L-69.465,-23.15 L-69.807,-22.775 L-70.145,-22.397 L-70.479,-22.016 L-70.81,-21.633 L-71.143,-21.239 L-71.156,-21.224 L-71.466,-20.85 L-71.48,-20.833 L-71.786,-20.457 L-71.801,-20.438 L-72.1,-20.06 L-72.116,-20.039 L-72.409,-19.659 L-72.427,-19.635 L-72.712,-19.253 L-72.732,-19.226 L-73.009,-18.841 L-73.031,-18.81 L-73.299,-18.424 L-73.324,-18.386 L-73.579,-17.999 L-73.608,-17.953 L-73.858,-17.551 L-73.867,-17.537 L-73.875,-17.522 L-74.116,-17.104 L-74.127,-17.084 L-74.137,-17.064 L-74.36,-16.632 L-74.37,-16.613 L-74.379,-16.593 L-74.579,-16.132 L-74.588,-16.112 L-74.595,-16.091 L-74.754,-15.578 L-74.761,-15.558 L-74.759,-15.536 L-74.691,-14.732 L-74.689,-14.71 L-74.676,-14.693 L-66.886,-4.845 L-66.873,-4.828 L-66.852,-4.82 Z"/></g></svg>