<svg xmlns="http://www.w3.org/2000/svg" viewBox="0 0 1260 1500" width="1260" height="1500" font-family="ui-monospace,Menlo,monospace"><rect width="100%" height="100%" fill="#fbfaf8"/><g transform="translate(64.38 47.31) scale(1.21)"><g fill="none" stroke="#000" stroke-width="13" stroke-linecap="butt" stroke-linejoin="miter"><path d="M0,0 L43.2,120 L86.4,0"/><path d="M106.4,0 V120 H162.8"/><path d="M182.8,120 V0 H209.2 A31.2,31.2 0 0 1 209.2,62.4 H182.8"/><path d="M208.72,62.4 L240.4,120"/></g></g><text x="210.0" y="266" text-anchor="middle" font-size="15" fill="#2b2b2b">01 · geometric monoline</text><line x1="40" y1="280" x2="380" y2="280" stroke="#e4e0d8" stroke-width="1"/><g transform="translate(528.74 55.23) scale(1.08)"><g fill="none" stroke="#000" stroke-width="7" stroke-linecap="butt" stroke-linejoin="miter"><path d="M0,0 L28.2,120 L56.4,0"/><path d="M82.4,0 V120 H120.8"/><path d="M146.8,120 V0 H164.8 A22.8,22.8 0 0 1 164.8,45.6 H146.8"/><path d="M165.16,45.6 L187.6,120"/></g><g stroke="#000" stroke-width="2.5"><line x1="0" y1="-18" x2="187.6" y2="-18"/><line x1="0" y1="138" x2="187.6" y2="138"/></g></g><text x="630.0" y="266" text-anchor="middle" font-size="15" fill="#2b2b2b">02 · deco condensed</text><line x1="460" y1="280" x2="800" y2="280" stroke="#e4e0d8" stroke-width="1"/><g transform="translate(904.38 47.31) scale(1.21)"><g fill="none" stroke="#000" stroke-width="13" stroke-linecap="butt" stroke-linejoin="miter"><path d="M0,0 L43.2,120 L86.4,0"/><path d="M106.4,0 V120 H162.8"/><path d="M182.8,120 V0 H224.8 L240.4,15.6 V46.8 L224.8,62.4 H182.8"/><path d="M208.72,62.4 L240.4,120"/></g></g><text x="1050.0" y="266" text-anchor="middle" font-size="15" fill="#2b2b2b">03 · chisel / faceted</text><line x1="880" y1="280" x2="1220" y2="280" stroke="#e4e0d8" stroke-width="1"/><g transform="translate(63.26 351.54) scale(1.14)"><g fill="none" stroke="#000" stroke-width="22" stroke-linecap="round" stroke-linejoin="round"><path d="M0,0 L46.8,120 L93.6,0"/><path d="M119.6,0 V120 H176"/><path d="M202,120 V0 H224.2 A33,33 0 0 1 224.2,66 H202"/><path d="M226.84,66 L257.2,120"/></g></g><text x="210.0" y="566" text-anchor="middle" font-size="15" fill="#2b2b2b">04 · soft velvet</text><line x1="40" y1="580" x2="380" y2="580" stroke="#e4e0d8" stroke-width="1"/><g transform="translate(483.08 352.19) scale(1.13)"><g fill="none" stroke="#000" stroke-width="2.5" stroke-linecap="butt" stroke-linejoin="miter"><path d="M0,0 L42,120 L84,0"/><path d="M124,0 V120 H174.4"/><path d="M214.4,120 V0 H236 A24,24 0 0 1 236,48 H214.4"/><path d="M234.92,48 L260,120"/></g></g><text x="630.0" y="566" text-anchor="middle" font-size="15" fill="#2b2b2b">05 · hairline couture</text><line x1="460" y1="580" x2="800" y2="580" stroke="#e4e0d8" stroke-width="1"/><g transform="translate(964.5 334.5) scale(0.79)"><g transform="translate(108 108)"><circle r="104" fill="none" stroke="#000" stroke-width="7"/><circle r="88" fill="none" stroke="#000" stroke-width="2"/><g transform="translate(-67.78 -33)"><g fill="none" stroke="#000" stroke-width="8" stroke-linecap="butt" stroke-linejoin="miter"><path d="M0,0 L24.42,66 L48.84,0"/><path d="M61.84,0 V66 H92.2"/><path d="M105.2,66 V0 H119.06 A16.5,16.5 0 0 1 119.06,33 H105.2"/><path d="M118.86,33 L135.56,66"/></g></g></g></g><text x="1050.0" y="566" text-anchor="middle" font-size="15" fill="#2b2b2b">06 · seal</text><line x1="880" y1="580" x2="1220" y2="580" stroke="#e4e0d8" stroke-width="1"/><g transform="translate(78.5 642.67) scale(1.1)"><rect x="0" y="0" width="238.08" height="140" fill="none" stroke="#000" stroke-width="9"/><g transform="translate(26 26)"><g fill="none" stroke="#000" stroke-width="11" stroke-linecap="butt" stroke-linejoin="miter"><path d="M0,0 L32.56,88 L65.12,0"/><path d="M85.12,0 V88 H125.6"/><path d="M145.6,88 V0 H163.2 A22.88,22.88 0 0 1 163.2,45.76 H145.6"/><path d="M163.82,45.76 L186.08,88"/></g></g></g><text x="210.0" y="866" text-anchor="middle" font-size="15" fill="#2b2b2b">07 · frame</text><line x1="40" y1="880" x2="380" y2="880" stroke="#e4e0d8" stroke-width="1"/><g transform="translate(506.5 645) scale(1.25)"><g fill="none" stroke="#000" stroke-width="13" stroke-linecap="butt" stroke-linejoin="miter"><path d="M0,0 L70,120 H116"/><path d="M70,0 V120"/><path d="M140,120 V0 H165.2 A32.4,32.4 0 0 1 165.2,64.8 H140"/><path d="M165.92,64.8 L197.6,120"/></g></g><text x="630.0" y="866" text-anchor="middle" font-size="15" fill="#2b2b2b">08 · V/L ligature</text><line x1="460" y1="880" x2="800" y2="880" stroke="#e4e0d8" stroke-width="1"/><g transform="translate(901.5 658.12) scale(1.03)"><g fill="#000"><path d="M0,0 L41,120 L82,0 L75,0 L50,74 L26,0 Z"/><path d="M0,0 H26 V110 H68 V120 H0 Z" transform="translate(106 0)"/><path d="M0,0 H46 A36,30 0 0 1 46,60 H26 V50 H46 A22,20 0 0 0 46,10 H26 V120 H0 Z" transform="translate(200 0)"/><path d="M42,60 L60,60 L88,120 L69,120 Z" transform="translate(200 0)"/></g></g><text x="1050.0" y="866" text-anchor="middle" font-size="15" fill="#2b2b2b">09 · high contrast</text><line x1="880" y1="880" x2="1220" y2="880" stroke="#e4e0d8" stroke-width="1"/><g transform="translate(55.45 980.81) scale(0.65)"><defs><g id="h"><path d="M11,120 V0 H33.8 A30,30 0 0 1 33.8,60 H11"/><path d="M34.76,60 L63.8,120"/><path d="M81.8,0 V120 H134.6"/><path d="M152.6,0 L194.6,120 L236.6,0"/></g></defs><g fill="none" stroke="#000" stroke-width="12"><use href="#h" transform="translate(236.6 0)"/><use href="#h" transform="translate(236.6 0) scale(-1 1)"/></g></g><text x="210.0" y="1166" text-anchor="middle" font-size="15" fill="#2b2b2b">10 · mirrored pair</text><line x1="40" y1="1180" x2="380" y2="1180" stroke="#e4e0d8" stroke-width="1"/><g transform="translate(483.67 949.99) scale(1.17)"><g fill="none" stroke="#000" stroke-width="24" stroke-linecap="butt" stroke-linejoin="round"><path d="M0,0 L44.4,120 L88.8,0"/><path d="M112.8,0 V120 H169.2"/><path d="M193.2,120 V0 H218.4 A32.4,32.4 0 0 1 218.4,64.8 H193.2"/><path d="M219.12,64.8 L250.8,120"/></g><g fill="none" stroke="#fff" stroke-width="7" stroke-linecap="butt" stroke-linejoin="round"><path d="M0,0 L44.4,120 L88.8,0"/><path d="M112.8,0 V120 H169.2"/><path d="M193.2,120 V0 H218.4 A32.4,32.4 0 0 1 218.4,64.8 H193.2"/><path d="M219.12,64.8 L250.8,120"/></g></g><text x="630.0" y="1166" text-anchor="middle" font-size="15" fill="#2b2b2b">11 · inline</text><line x1="460" y1="1180" x2="800" y2="1180" stroke="#e4e0d8" stroke-width="1"/><g transform="translate(904.02 948.67) scale(1.19)"><g fill="none" stroke="#000" stroke-width="13" stroke-linecap="butt" stroke-linejoin="miter"><path d="M0,0 L44.4,120 L88.8,0"/><path d="M110.8,0 V120"/><path d="M120.8,120 H166"/><path d="M188,0 V120"/><path d="M203,0 H213.2 A32.4,32.4 0 0 1 213.2,64.8 H203"/><path d="M216.8,72.9 L245.6,120"/></g></g><text x="1050.0" y="1166" text-anchor="middle" font-size="15" fill="#2b2b2b">12 · stencil</text><line x1="880" y1="1180" x2="1220" y2="1180" stroke="#e4e0d8" stroke-width="1"/><g transform="translate(67.46 1252.61) scale(1.12)"><g fill="none" stroke="#000" stroke-width="12" stroke-linecap="butt" stroke-linejoin="miter"><path d="M0,0 L43.2,120 L86.4,0"/><path d="M110.4,0 V120 H165.6"/><path d="M189.6,120 V0 H214.8 A30,30 0 0 1 214.8,60 H189.6"/><path d="M214.44,60 L244.8,120"/><path d="M-9,0 H9"/><path d="M77.4,0 H95.4"/><path d="M101.4,0 H119.4"/><path d="M180.6,0 H198.6"/><path d="M180.6,120 H198.6"/><path d="M235.8,120 H253.8"/><path d="M165.6,110 V120"/></g></g><text x="210.0" y="1466" text-anchor="middle" font-size="15" fill="#2b2b2b">13 · slab</text><line x1="40" y1="1480" x2="380" y2="1480" stroke="#e4e0d8" stroke-width="1"/><g transform="translate(479.54 1265.48) scale(0.91)"><g fill="none" stroke="#000" stroke-width="16" stroke-linecap="butt" stroke-linejoin="miter"><path d="M0,0 L58.8,120 L117.6,0"/><path d="M147.6,0 V120 H224.4"/><path d="M254.4,120 V0 H302.4 A28.8,28.8 0 0 1 302.4,57.6 H254.4"/><path d="M288.96,57.6 L331.2,120"/></g></g><text x="630.0" y="1466" text-anchor="middle" font-size="15" fill="#2b2b2b">14 · extended</text><line x1="460" y1="1480" x2="800" y2="1480" stroke="#e4e0d8" stroke-width="1"/><g transform="translate(903.59 1250.28) scale(1.16)"><g fill="none" stroke="#000" stroke-width="14" stroke-linecap="butt" stroke-linejoin="miter"><path d="M0,0 L38.4,120 H50.4 L88.8,0"/><path d="M112.8,0 V120 H170.4"/><path d="M194.4,120 V0 H252 V62.4 H194.4"/><path d="M220.32,62.4 L252,120"/></g></g><text x="1050.0" y="1466" text-anchor="middle" font-size="15" fill="#2b2b2b">15 · square / techno</text><line x1="880" y1="1480" x2="1220" y2="1480" stroke="#e4e0d8" stroke-width="1"/></svg>